<svg xmlns="http://www.w3.org/2000/svg" version="1.1" viewBox="114 260.08 457.5 79.84">
 <g id="Layer_1">
  <title>Layer 1</title>
  <g stroke="null">
   <g stroke="null">
    <title stroke="null">Layer 1</title>
    <path stroke="null" id="svg_1" d="m114.00001,260.20641l0,79.71463l20.15584,-15.15082l0,-27.031l19.8871,-12.91221l19.80121,12.74043l0,27.37454l20.15584,-14.72l0,-27.11688l-39.93697,-23.02615l-20.13922,11.40502l-19.92381,-11.27758" fill="#000000" fill-rule="nonzero"/>
   </g>
  </g>
  <g>
   <g fill="#000000" transform="translate(0 98) scale(0.1 -0.1)">
    <path d="m2285,-2018.99991l0,-231l55,0l54,0l3,131l3,131l74,-109c104,-152 105,-153 163,-153l48,0l0,230l0,230l-60,0l-59,0l-3,-124l-3,-125l-85,122l-86,122l-52,3l-52,3l0,-230z"/>
    <path d="m2827,-1822.99991l-32,-33l0,-166l0,-166l35,-31l36,-31l127,0l128,0l37,38l37,38l0,160l0,160l-33,32l-33,32l-135,0l-135,0l-32,-33zm248,-197l0,-131l-82,3l-83,3l-3,128l-3,127l86,0l85,0l0,-130z"/>
    <path d="m3305,-2019.99991l0,-230l163,0l163,0l37,38l37,38l0,160l0,160l-33,32l-33,32l-167,0l-167,0l0,-230zm280,0l0,-130l-80,0l-80,0l0,130l0,130l80,0l80,0l0,-130z"/>
    <path d="m3815,-1982.99991l0,-193l38,-37l38,-37l157,0l157,0l0,50l0,50l-135,0l-135,0l0,40l0,40l115,0l115,0l0,50l0,50l-115,0l-115,0l0,40l0,40l135,0l135,0l0,50l0,50l-195,0l-195,0l0,-193z"/>
    <path d="m4315,-2019.99991l0,-230l55,0l55,0l0,80l0,80l48,0l47,0l48,-80l48,-80l55,0c52,0 54,1 54,28c0,15 -16,52 -35,82l-34,55l34,35c34,35 35,38 35,116c0,77 -1,81 -33,112l-33,32l-172,0l-172,0l0,-230zm290,80l0,-50l-90,0l-90,0l0,50l0,50l90,0l90,0l0,-50z"/>
    <path d="m4835,-1982.99991l0,-193l38,-37l38,-38l155,3l154,3l3,47l3,48l-135,0l-136,0l0,40l0,40l115,0l115,0l0,50l0,50l-115,0l-115,0l0,40l0,39l133,3l132,3l3,48l3,47l-195,0l-196,0l0,-193z"/>
    <path d="m5367,-1822.99991l-32,-33l0,-197l0,-197l55,0l55,0l0,90l0,90l120,0l120,0l0,50l0,49l-117,3l-118,3l-3,38l-3,37l135,0l136,0l0,50l0,50l-158,0l-158,0l-32,-33z"/>
   </g>
  </g>
 </g>

</svg>